<?xml version="1.0" encoding="UTF-8"?>
<svg id="final_gaia" xmlns="http://www.w3.org/2000/svg" viewBox="0 0 348.63 112.89">
  <defs>
    <style>
      .cls-1 {
        fill: #122321;
      }

      .cls-2, .cls-3, .cls-4, .cls-5, .cls-6, .cls-7, .cls-8 {
        fill: #7aac80;
      }

      .cls-3 {
        opacity: .17;
      }

      .cls-4 {
        opacity: 0;
      }

      .cls-5 {
        opacity: .5;
      }

      .cls-6 {
        opacity: .83;
      }

      .cls-7 {
        opacity: .33;
      }

      .cls-8 {
        opacity: .67;
      }
    </style>
  </defs>
  <g>
    <path class="cls-1" d="m249.24,99.32c.9-1.43,2.15-2.55,3.73-3.36,1.58-.82,3.34-1.22,5.28-1.22,1.3,0,2.98.13,4.47.86.52.25,1.51,2.09,1.22,2.84-.01.03-.1.02-.12,0-.65-.72-.84-1.06-1.82-1.99-1-.95-2.74-1.44-3.8-1.44-.8,0-1.56.29-2.27.87-.72.58-1.29,1.45-1.73,2.62-.44,1.17-.66,2.59-.66,4.26,0,1.91.28,3.61.83,5.11.55,1.5,1.27,2.66,2.15,3.49.88.83,1.8,1.25,2.76,1.25.75,0,1.49-.36,2.21-1.09s1.45-1.58,1.93-2.67c.93-2.14.34-2.65,1.48-3.15l-.41,4.68c-.1,1.1-.94,1.99-2.03,2.18-1.26.22-2.44.32-3.53.32-2.33,0-4.33-.37-5.99-1.11-1.66-.74-2.92-1.77-3.77-3.09-.86-1.32-1.28-2.84-1.28-4.57s.45-3.35,1.36-4.78Z"/>
    <path class="cls-1" d="m269.34,112.08c-1.07-.53-1.9-1.27-2.48-2.21-.58-.94-.87-2.03-.87-3.25s.33-2.36.99-3.41c.66-1.05,1.57-1.89,2.74-2.53,1.16-.64,2.47-.95,3.92-.95,1.34,0,2.53.25,3.57.76s1.86,1.22,2.44,2.13c.59.91.88,1.95.88,3.1,0,1.29-.33,2.48-1,3.58s-1.57,1.97-2.71,2.62c-1.14.64-2.39.96-3.74.96s-2.66-.26-3.74-.79Zm2.09-3.04c.3,1.12.68,2,1.14,2.62s.9.93,1.34.93.84-.42,1.16-1.26c.32-.84.48-2.14.48-3.9,0-1.45-.15-2.74-.45-3.86-.3-1.13-.67-2-1.11-2.62s-.86-.93-1.27-.93c-.51,0-.92.42-1.25,1.25-.33.83-.49,2.13-.49,3.91,0,1.45.15,2.74.45,3.86Z"/>
    <path class="cls-1" d="m295.17,111.9c0,.33,1.22.23,1.22.61h-7.09c0-.35,1.22-.28,1.22-.61,0-1.61,0-7.45,0-7.45,0-.67-.15-1.17-.44-1.5-.29-.33-.69-.5-1.2-.5-.29,0-.55.04-.76.12-.21.08-.48.21-.81.39,0,0-.01,8.08,0,8.94,0,.33,1.21.25,1.22.61h-7.21c.04-.39,1.35-.25,1.34-.61-.01-1.01,0-9.46,0-9.58-.02-.6-1.23-.12-1.34-.54,0,0,5.98-3.32,5.99-2.05,0,.5-.02,2.77,0,2.96.02.24,1.49-1.27,1.92-1.62s.9-.66,1.42-.93,1-.4,1.48-.4c.88,0,1.6.34,2.18,1.01.57.68.86,1.64.86,2.9,0,0,0,6.82,0,8.26Z"/>
    <path class="cls-1" d="m297.77,102.06c.54-.68,1.3-1.23,2.27-1.67.97-.44,2.05-.66,3.24-.66.77,0,1.41.05,1.93.14.52.09,1.17.2,1.47.61.55.75-.02,2.8.04,3.46,0,.03-.09,0-.12,0-.59-.11-.82-2.02-1.67-2.74-.86-.72-1.8-1.08-2.82-1.08-.54,0-.94.1-1.21.31-.27.2-.4.48-.4.82,0,.39.17.75.5,1.06s.93.67,1.8,1.06l1.29.59c1.25.57,2.17,1.18,2.75,1.83.58.65.87,1.45.87,2.39,0,.86-.25,1.65-.75,2.36-.5.71-1.23,1.34-2.23,1.76-1,.42-1.93.66-3.64.57-.01,0-.02,0-.03,0-3.47-.3-3.26-1.11-3.3-2.57-.08-2.76-.89-2.41-.21-2.54.04,0,.11,0,.15,0,.7,0,.95,1.67,1.31,2.21.44.67,1.2,1.21,2.15,1.55.85.3,1.66.56,2.53.56.58,0,1.02-.11,1.31-.32.28-.21.43-.48.43-.81,0-.37-.21-.74-.62-1.09s-1.2-.78-2.33-1.28l-1.86-.83c-1.38-.62-2.34-1.2-2.86-1.73-.52-.54-.78-1.19-.78-1.95,0-.67.27-1.34.82-2.02Z"/>
    <path class="cls-1" d="m315.27,103.43c-.1,0-.19.02-.29.03-.03,0-.06,0-.08.02-.04,0-.08,0-.12-.02-.07-.05-.09-.15-.04-.22l.18-.36c.04-.06.11-.09.18-.06,0,.07.02.13.07.17.05.04.11.07.19.09.26.06.65.05.65.05.47-.01.69-.14.77-.36.17-.47-.24-1.43-.53-1.95-.29-.52-.63-.78-1.04-.78s-.72.25-.99.76c-.27.51-.44,1.23-.5,2.17,0,0-.03.52-.03.78,0,4.02,1.55,6.02,4.64,6.04.86,0,1.67-.3,2-.56,1.67-1.28-.82-1.47,1.2-1.67.08,0,.15,0,.15.05,0,1.78-.87,3-2,3.84s-2.52,1.44-4.28,1.44c-1.22,0-2.31-.26-3.28-.78-.96-.52-1.71-1.25-2.26-2.2-.54-.94-.82-2.04-.82-3.27,0-1.39.31-2.6.94-3.64.63-1.04,1.46-1.85,2.5-2.41,1.04-.56,2.18-.84,3.4-.84,1.04,0,1.95.16,2.73.48.77.32,1.37.74,1.8,1.26s.86,1.33.73,1.71c-.15.45-2.95.39-5.06.25,0,0-.4-.01-.81,0Z"/>
    <path class="cls-1" d="m323.34,111.9c0-2.27,0-8.25,0-9.58,0-.36-1.2-.14-1.34-.54l4.52-1.55c.72-.25,1.46.29,1.46,1.04,0,0,.01,8.4,0,10.62,0,.36,1.38.24,1.34.61h-7.33c-.03-.37,1.34-.25,1.34-.61Zm.41-13.32c-.47-.42-.71-.98-.71-1.66s.23-1.27.7-1.7c.47-.43,1.1-.65,1.92-.65s1.43.21,1.91.65c.47.43.71,1,.71,1.7s-.24,1.24-.71,1.66c-.47.42-1.11.63-1.91.63s-1.43-.21-1.91-.63Z"/>
    <path class="cls-1" d="m331.31,111.9c0-.39,0-13.47,0-16.25,0-.36-1.13-.11-1.34-.54l4.15-1.25c.92-.28,1.84.4,1.84,1.36,0,4.11,0,13.66,0,16.68,0,.36,1.34.21,1.34.61h-7.33c-.03-.37,1.34-.25,1.34-.61Z"/>
    <path class="cls-1" d="m338.7,101.68c.54-.68,1.3-1.23,2.27-1.67.97-.44,2.05-.66,3.24-.66.77,0,1.41.05,1.93.14.52.09,1.17.2,1.47.61.55.75-.02,2.8.04,3.46,0,.03-.09,0-.12,0-.59-.11-.82-2.02-1.67-2.74-.86-.72-1.8-1.08-2.82-1.08-.54,0-.94.1-1.21.31-.27.2-.4.48-.4.82,0,.39.17.75.5,1.06s.93.67,1.8,1.06l1.29.59c1.25.57,2.17,1.18,2.75,1.83s.87,1.45.87,2.39c0,.86-.25,1.65-.75,2.36-.5.71-1.23,1.34-2.23,1.76-1,.42-1.93.66-3.64.57-.01,0-.02,0-.03,0-3.47-.3-3.26-1.11-3.3-2.57-.08-2.76-.89-2.41-.21-2.54.04,0,.11,0,.15,0,.7,0,.95,1.67,1.31,2.21.44.67,1.2,1.21,2.15,1.55.85.3,1.66.56,2.53.56.58,0,1.02-.11,1.31-.32.28-.21.43-.48.43-.81,0-.37-.21-.74-.62-1.09s-1.2-.78-2.33-1.28l-1.86-.83c-1.38-.62-2.34-1.2-2.86-1.73-.52-.54-.78-1.19-.78-1.95,0-.67.27-1.34.82-2.02Z"/>
  </g>
  <g>
    <path class="cls-1" d="m78.02,41.18c8.8,0,15.94,7.13,15.94,15.94h0c0,10.75-7.19,20.28-17.61,22.93-.07.02-.13.03-.2.05-6.61,1.66-13.51,2.49-20.71,2.49-7.97,0-15.33-1.02-22.1-3.07-6.77-2.05-12.63-4.91-17.57-8.58-4.95-3.67-8.82-8.02-11.6-13.05C1.39,52.86,0,47.37,0,41.41s1.37-11.35,4.12-16.41c2.74-5.06,6.53-9.45,11.37-13.17,4.83-3.71,10.54-6.61,17.11-8.7,6.57-2.09,13.73-3.13,21.46-3.13,6.03,0,12.06.64,18.1,1.91,3.14.66,6.17,1.49,9.1,2.48,4.71,1.59,7.84,6.07,7.84,11.04h0s-.7,0-.7,0c-1.47-2.01-3.38-3.83-5.74-5.45-2.36-1.62-4.97-3.02-7.83-4.18-2.86-1.16-5.92-2.05-9.16-2.67-3.25-.62-6.54-.93-9.86-.93-10.36,0-18.19,3.23-23.49,9.69-5.3,6.46-7.95,16.07-7.95,28.83s2.78,22.91,8.35,29.52c5.57,6.61,13.88,9.92,24.94,9.92,2.09,0,4.31-.12,6.67-.35h0c3.65-.36,6.44-3.44,6.44-7.11v-23.51c0-1.31-.21-2.42-.64-3.31-.43-.89-1.12-1.6-2.09-2.15-.97-.54,2.49-1.46,5.34-2.11l4.65-.45Z"/>
    <path class="cls-1" d="m201.4,82.69c-.02-1.12-.45-2.18-1.16-3.04-.26-.31-.52-.66-.78-1.05-.66-.97-1.45-2.26-2.38-3.89,0,0-35.61-60.49-42.67-72.63-.78-1.33-2.2-2.15-3.74-2.15s-2.97.82-3.75,2.16l-36.47,65.79-3.61,6.25c-.39.7-.89,1.49-1.51,2.38-.62.89-1.3,1.76-2.03,2.61-.39.45-.78.86-1.19,1.23-.73.66-1.25,1.52-1.45,2.48h7.28c.8,0,1.5-.55,1.68-1.33-.7-.42-1.12-.99-1.28-1.68-.16-.7-.08-1.49.23-2.38.31-.89.73-1.84,1.28-2.84l3.41-5.9,8.23-14.23,6.52-.19c.8-.04,1.74-.03,2.82.03,1.08.06,2.18.18,3.29.35.32.05.63.11.94.18.47.11.96.02,1.34-.26.79-.58,1-1.67.49-2.51l-2.05-3.32c-.42-.68-1.26-.98-2.02-.73,0,.82-.25,1.47-.76,1.97-.51.5-1.22.85-2.14,1.05-.92.21-1.95.34-3.09.41l-3.64.11.59-.99,12.27-21.31c2.17-3.76,7.6-3.75,9.75.03l11.87,20.89.22.38,1.39,2.55,12.3,21.58c.36.67.53,1.39.58,2.1.15,2.08-.84,4.07-2.44,5.4-.26.21-.11.63.23.63h31.48v-.14Z"/>
    <path class="cls-1" d="m348.63,82.69c-.02-1.12-.45-2.18-1.16-3.04-.26-.31-.52-.66-.78-1.05-.66-.97-1.45-2.26-2.38-3.89,0,0-35.61-60.49-42.67-72.63-.78-1.33-2.2-2.15-3.74-2.15s-2.97.82-3.75,2.16l-36.47,65.79-3.61,6.25c-.39.7-.89,1.49-1.51,2.38-.62.89-1.3,1.76-2.03,2.61-.39.45-.78.86-1.19,1.23-.73.66-1.25,1.52-1.45,2.48h7.28c.8,0,1.5-.55,1.68-1.33-.7-.42-1.12-.99-1.28-1.68-.16-.7-.08-1.49.23-2.38.31-.89.73-1.84,1.28-2.84l3.41-5.9,8.23-14.23,6.52-.19c.8-.04,1.74-.03,2.82.03,1.08.06,2.18.18,3.29.35.32.05.63.11.94.18.47.11.96.02,1.34-.26.79-.58,1-1.67.49-2.51l-2.05-3.32c-.42-.68-1.26-.98-2.02-.73,0,.82-.25,1.47-.76,1.97-.51.5-1.22.85-2.14,1.05-.92.21-1.95.34-3.09.41l-3.64.11.59-.99,12.27-21.31c2.17-3.76,7.6-3.75,9.75.03l11.87,20.89.22.38,1.39,2.55,12.3,21.58c.36.67.53,1.39.58,2.1.15,2.08-.84,4.07-2.44,5.4-.26.21-.11.63.23.63h31.48v-.14Z"/>
    <g>
      <path class="cls-1" d="m211.56,78.34c.95-1.3,1.47-2.88,1.47-4.5h23.23c0,1.62.52,3.19,1.47,4.5h-26.17Z"/>
      <path class="cls-1" d="m238.37,3.64c.39-.45.78-.86,1.19-1.23.73-.66,1.25-1.52,1.45-2.49h0s-27.31,0-27.31,0h-.4s-5,0-5,0h0c.2.97.72,1.82,1.45,2.49.41.37.8.78,1.19,1.23.12.13,27.33.13,27.44,0Z"/>
      <path class="cls-1" d="m238.37,79.12c.39.45.78.86,1.19,1.23.73.66,1.25,1.52,1.45,2.49h0s-5,0-5,0h-.4s-27.31,0-27.31,0h0c.2-.97.72-1.82,1.45-2.49.41-.37.8-.78,1.19-1.23.12-.13,27.33-.13,27.44,0Z"/>
      <path class="cls-1" d="m211.56,4.43c.95,1.3,1.47,2.88,1.47,4.5h23.23c0-1.62.52-3.19,1.47-4.5h-26.17Z"/>
      <g>
        <path class="cls-1" d="m214.45,71.59c-1.18-1.43-1.53-3.39-1.14-5.2l1.88-8.61c.34-1.64.45-2.82,1.08-4.49.45-1.22,1.08-2.37,1.8-3.45l2.55-3.82c.22-.46.42-.93.56-1.41.25-.87.39-1.76.43-2.65.09-2.11-.56-4.18-1.65-5.98l-1.94-3.21c-1.31-2.17-2.25-4.54-2.76-7.02l-1.94-9.35c-.39-1.82-.05-3.77,1.14-5.2,1.13-1.37,2.85-2.25,4.77-2.25h-6.18v64.92h6.18c-1.92,0-3.64-.88-4.77-2.25Z"/>
        <path class="cls-1" d="m230.08,8.92c2.13,0,4.02,1.08,5.13,2.73.92,1.36,1.14,3.08.79,4.68l-1.77,9.39c-.48,2.56-1.44,5-2.83,7.2l-1.82,2.88c-1.47,2.33-2.13,5.14-1.59,7.85,0,.02,0,.04.01.06.18.86.5,1.69.89,2.48l3.02,4.49c1.21,2.08,2.07,4.51,2.68,7.29l1.38,8.46c.34,1.6.12,3.32-.8,4.68-1.11,1.64-2.99,2.72-5.12,2.72h6.21V8.92h-6.18Z"/>
      </g>
      <g>
        <path class="cls-2" d="m234.47,69.4c0,3.11-4.39,3.17-9.81,3.17s-9.82-.06-9.82-3.17,4.4-8.08,9.82-8.08,9.81,4.98,9.81,8.08Z"/>
        <path class="cls-6" d="m233.25,67.53c0,2.76-3.66,2.87-8.59,2.87s-8.6-.11-8.6-2.87,3.85-7.05,8.6-7.05,8.59,4.29,8.59,7.05Z"/>
        <path class="cls-8" d="m232.02,65.66c0,2.42-2.93,2.58-7.37,2.58-4.32,0-7.38-.17-7.38-2.58s3.3-6.01,7.38-6.01,7.37,3.6,7.37,6.01Z"/>
        <path class="cls-5" d="m230.8,63.79c0,2.07-2.2,2.29-6.15,2.29-3.77,0-6.15-.22-6.15-2.29s2.76-4.98,6.15-4.98,6.15,2.91,6.15,4.98Z"/>
        <path class="cls-7" d="m229.58,61.93c0,1.73-1.46,2-4.92,2-3.22,0-4.93-.27-4.93-2s2.21-3.95,4.93-3.95,4.92,2.22,4.92,3.95Z"/>
        <path class="cls-3" d="m228.35,60.06c0,1.38-.73,1.71-3.7,1.71-2.67,0-3.7-.33-3.7-1.71s1.66-2.91,3.7-2.91,3.7,1.53,3.7,2.91Z"/>
        <path class="cls-4" d="m224.65,56.31c1.37,0,2.48.84,2.48,1.88,0,1.04,0,1.42-2.48,1.42-2.12,0-2.48-.38-2.48-1.42s1.11-1.88,2.48-1.88Z"/>
      </g>
      <g>
        <path class="cls-2" d="m231.13,28.74c0-1.9-1.85-1.94-3.56-1.28-1.7.66-3.61.7-5.33.08s-3.53-.53-3.53,1.2c0,2.44,4.26,10.2,5.94,10.2,1.52,0,6.48-7.77,6.48-10.2Z"/>
        <path class="cls-6" d="m230.74,29.58c0-1.78-1.75-1.81-3.34-1.19-1.6.63-3.38.67-5,.1s-3.32-.48-3.31,1.14c0,2.29,4.03,9.57,5.61,9.56,1.43,0,6.05-7.33,6.04-9.61Z"/>
        <path class="cls-8" d="m230.36,30.42c-.01-1.67-1.64-1.69-3.13-1.1-1.49.59-3.16.65-4.67.11s-3.1-.44-3.09,1.08c.02,2.15,3.81,8.94,5.29,8.93,1.33-.01,5.62-6.89,5.6-9.02Z"/>
        <path class="cls-5" d="m229.98,31.26c-.02-1.55-1.53-1.57-2.91-1.01-1.38.56-2.93.62-4.34.13s-2.88-.39-2.86,1.02c.03,2,3.58,8.31,4.96,8.29,1.24-.02,5.19-6.44,5.16-8.43Z"/>
        <path class="cls-7" d="m229.59,32.1c-.03-1.44-1.42-1.44-2.7-.92-1.27.53-2.71.59-4.01.14s-2.67-.35-2.64.96c.04,1.85,3.36,7.68,4.63,7.66,1.15-.02,4.76-6,4.72-7.84Z"/>
        <path class="cls-3" d="m229.21,32.95c-.04-1.33-1.32-1.32-2.48-.83s-2.48.56-3.68.16-2.45-.3-2.42.9c.05,1.71,3.14,7.05,4.3,7.02,1.05-.03,4.33-5.56,4.28-7.26Z"/>
        <path class="cls-4" d="m228.82,33.79c-.04-1.21-1.21-1.2-2.27-.74s-2.26.53-3.35.17-2.24-.26-2.2.84c.06,1.56,2.91,6.43,3.97,6.39.96-.03,3.9-5.11,3.84-6.67Z"/>
      </g>
    </g>
  </g>
</svg>